# xmcd CD database file
#
# Track frame offsets:
#	150
#	41005
#	82032
#	101267
#	136320
#	161242
#	186098
#	221048
#
# Disc length: 3514 seconds
#
# Revision: 0
# Processed by: cddbd v1.5.1PL0 Copyright (c) Steve Scherf et al.
# Submitted via: CDex 1.51
#
DISCID=6d0db808
DTITLE=Kitaro - World Of Kita[Vol05][Holy Vibration]
DYEAR=2000
DGENRE=New Age
TTITLE0=Matsuri
TTITLE1=Dance Of Sarasvati
TTITLE2=Moondance
TTITLE3=Underworld
TTITLE4=Winter Waltz
TTITLE5=Peace Trough Kindness
TTITLE6=Fiesta
TTITLE7=Matsuri
EXTD=YEAR: 2000
EXTT0=
EXTT1=
EXTT2=
EXTT3=
EXTT4=
EXTT5=
EXTT6=
EXTT7=
PLAYORDER=
